# xmcd CD database file
#
# Track frame offsets:
#	150
#	18525
#	32550
#	52500
#	67500
#	80700
#	95250
#	104775
#	114900
#	130650
#	141150
#	154875
#	172125
#	190950
#	202875
#	217275
#	233250
#	249750
#	271350
#	282975
#	293250
#	303525
#	317700
#	329625
#
# Disc length: 4776 seconds
#
# Revision: 2
# Processed by: cddbd v1.5.1PL0 Copyright (c) Steve Scherf et al.
# Submitted via: CDex 1.50
#
DISCID=4f12a618
DTITLE=Alexandrovci - Rodnaja Armija
DYEAR=1982
DGENRE=
TTITLE0=Svata valka
TTITLE1=Vojensky vek
TTITLE2=Tamanske zatoky
TTITLE3=Vitezstvi
TTITLE4=Moje zeme
TTITLE5=Vojensti dirigenti
TTITLE6=Jsme armadou lidu
TTITLE7=Kracejici Moskvane
TTITLE8=Dva zamilovani
TTITLE9=Predzpevak
TTITLE10=Hodiny historie
TTITLE11=Marsal Zukov a vitezstvi
TTITLE12=Orchestr naseho mladi
TTITLE13=Rusove napnete se k boji
TTITLE14=Vypravejte,veterani
TTITLE15=Prehlidka vitezstvi
TTITLE16=Co je to Rusko
TTITLE17=Jdi cestami vlasti
TTITLE18=Podle hodnosti neni stanoveno
TTITLE19=Kdyz vojak prisaha
TTITLE20=Jsme tvoji hrdinove
TTITLE21=Súpokojena je vlast, spokojena jsem ja
TTITLE22=Slouzime vlasti
TTITLE23=Slavici
EXTD=YEAR: 1982
EXTT0=
EXTT1=
EXTT2=
EXTT3=
EXTT4=
EXTT5=
EXTT6=
EXTT7=
EXTT8=
EXTT9=
EXTT10=
EXTT11=
EXTT12=
EXTT13=
EXTT14=
EXTT15=
EXTT16=
EXTT17=
EXTT18=
EXTT19=
EXTT20=
EXTT21=
EXTT22=
EXTT23=
PLAYORDER=
